<svg data-v-0dd9719b="" version="1.0" xmlns="http://www.w3.org/2000/svg" xmlns:xlink="http://www.w3.org/1999/xlink" width="100%" height="100%" viewBox="0 0 340.000000 250.000000" preserveAspectRatio="xMidYMid meet" color-interpolation-filters="sRGB" style="margin: auto;">   <g data-v-0dd9719b="" fill="#0FDDEF" class="j-b-g-c iconbgsvg" transform="translate(68.5,23.5)"><g data-d="container" transform="translate(0,0)"><g><rect fill="#0FDDEF" fill-opacity="0" stroke-width="2" x="0" y="0" width="203.00000000000006" height="203.00000000000006" class="image-rect"></rect> <svg filter="url(#colors6065170794)" x="0" y="0" width="203.00000000000006" height="203.00000000000006" filtersec="colorsf8645875269" class="image-svg-container primary" style="overflow: visible;"><svg xmlns="http://www.w3.org/2000/svg" viewBox="0 0 204 204" fill-rule="evenodd" clip-rule="evenodd" shape-rendering="geometricPrecision" text-rendering="geometricPrecision" image-rendering="optimizeQuality" style="overflow: visible;"><g transform="scale(1, 1) skewX(0)" mask="url(#UHYZMMTWhNIqmMSb6Qx7E)"><path class="fil0" d="M102 0c56 0 102 46 102 102s-46 102-102 102S0 158 0 102 46 0 102 0zm0 17c-47 0-85 38-85 85s38 86 85 86 86-39 86-86-39-85-86-85z" fill="#000000" stroke-width="7.5" stroke-linejoin="round"></path></g><mask data-mask="icon-ele" id="UHYZMMTWhNIqmMSb6Qx7E"><g stroke="#000" fill="#fff"><path class="fil0" d="M102 0c56 0 102 46 102 102s-46 102-102 102S0 158 0 102 46 0 102 0zm0 17c-47 0-85 38-85 85s38 86 85 86 86-39 86-86-39-85-86-85z" stroke-width="7.5" stroke-linejoin="round"></path></g></mask></svg></svg> <defs><filter id="colors6065170794"><feColorMatrix type="matrix" values="0 0 0 0 0.05859375  0 0 0 0 0.86328125  0 0 0 0 0.93359375  0 0 0 1 0" class="icon-fecolormatrix"></feColorMatrix></filter> <filter id="colorsf8645875269"><feColorMatrix type="matrix" values="0 0 0 0 0.99609375  0 0 0 0 0.99609375  0 0 0 0 0.99609375  0 0 0 1 0" class="icon-fecolormatrix"></feColorMatrix></filter> <filter id="colorsb1385007376"><feColorMatrix type="matrix" values="0 0 0 0 0  0 0 0 0 0  0 0 0 0 0  0 0 0 1 0" class="icon-fecolormatrix"></feColorMatrix></filter></defs></g></g> <g data-d="icon-text" hollow-target="textRect" transform="translate(21.55780792236328,72.17199897766113)"><!----> <g data-d="text"><g data-gra="path-name" fill-rule="" class="tp-name iconsvg-namesvg"><g transform="scale(1.5600000000000005)"><g><path d="M15.96 0.26Q14.4 0.26 13.49-0.65 12.58-1.56 12.58-3.07L12.58-3.07 12.58-31.15 3.12-31.15Q0-31.15 0-33.9L0-33.9Q0-36.66 3.12-36.66L3.12-36.66 28.76-36.66Q31.88-36.66 31.88-33.9L31.88-33.9Q31.88-31.15 28.76-31.15L28.76-31.15 19.29-31.15 19.29-3.07Q19.29-1.56 18.38-0.65 17.47 0.26 15.96 0.26L15.96 0.26ZM64.53-4Q64.84-3.33 64.84-2.65L64.84-2.65Q64.84-1.46 63.88-0.62 62.92 0.21 61.67 0.21L61.67 0.21Q60.84 0.21 60.11-0.23 59.38-0.68 58.97-1.61L58.97-1.61 55.85-8.58 37.54-8.58 34.42-1.61Q34.01-0.68 33.28-0.23 32.55 0.21 31.67 0.21L31.67 0.21Q30.47 0.21 29.48-0.62 28.5-1.46 28.5-2.65L28.5-2.65Q28.5-3.33 28.81-4L28.81-4 43.16-34.84Q43.63-35.88 44.59-36.43 45.55-36.97 46.64-36.97L46.64-36.97Q47.74-36.97 48.7-36.43 49.66-35.88 50.13-34.84L50.13-34.84 64.53-4ZM46.7-29.22L39.83-13.78 53.56-13.78 46.7-29.22ZM85.07 0.47Q79.72 0.47 75.79-1.82 71.86-4.11 69.73-8.37 67.6-12.64 67.6-18.36L67.6-18.36Q67.6-24.08 69.71-28.31 71.81-32.55 75.76-34.84 79.72-37.13 85.07-37.13L85.07-37.13Q90.43-37.13 94.35-34.84 98.28-32.55 100.39-28.31 102.49-24.08 102.49-18.36L102.49-18.36Q102.49-12.64 100.36-8.37 98.23-4.11 94.3-1.82 90.38 0.47 85.07 0.47L85.07 0.47ZM85.07-4.89Q90.12-4.89 92.95-8.37 95.78-11.86 95.78-18.36L95.78-18.36Q95.78-24.86 92.95-28.31 90.12-31.77 85.07-31.77L85.07-31.77Q79.98-31.77 77.14-28.31 74.31-24.86 74.31-18.36L74.31-18.36Q74.31-11.86 77.14-8.37 79.98-4.89 85.07-4.89L85.07-4.89Z" transform="translate(0, 37.130001068115234)"></path></g> <!----> <!----> <!----> <!----> <!----> <!----> <!----></g></g> <!----></g></g></g><defs><filter id="6025bd1e-6b25-4912-a2e3-765b40f1c622">
          <feColorMatrix type="matrix" values="0 0 0 0 0  0 0 0 0 0  0 0 0 0 0  0 0 0 1 0"></feColorMatrix>
          </filter><filter id="5cb90997-e281-4ed5-8249-3c55f1ee06d0">
          <feColorMatrix type="matrix" values="0 0 0 0 0.99609375  0 0 0 0 0.99609375  0 0 0 0 0.99609375  0 0 0 1 0"></feColorMatrix>
          </filter></defs><mask id="aae5eae2-68ab-4364-94bd-827830877a24"><g data-v-0dd9719b="" fill="#0FDDEF" class="j-b-g-c iconbgsvg"><g data-d="container" transform="translate(0,0)"><g><rect fill="#0FDDEF" fill-opacity="0" stroke-width="2" x="0" y="0" width="203.00000000000006" height="203.00000000000006" class="image-rect" stroke="#000"></rect> <svg filter="url(#5cb90997-e281-4ed5-8249-3c55f1ee06d0)" x="0" y="0" width="203.00000000000006" height="203.00000000000006" filtersec="colorsf8645875269" class="image-svg-container primary" style="overflow: visible;"><svg xmlns="http://www.w3.org/2000/svg" viewBox="0 0 204 204" fill-rule="evenodd" clip-rule="evenodd" shape-rendering="geometricPrecision" text-rendering="geometricPrecision" image-rendering="optimizeQuality" style="overflow: visible;"><g transform="scale(1, 1) skewX(0)" mask="url(#u-V5eXWYPnoJwaUcttqnj)"><path class="fil0" d="M102 0c56 0 102 46 102 102s-46 102-102 102S0 158 0 102 46 0 102 0zm0 17c-47 0-85 38-85 85s38 86 85 86 86-39 86-86-39-85-86-85z" fill="#000000" stroke-width="7.5" stroke-linejoin="round" stroke="#000"></path></g><mask data-mask="icon-ele" id="u-V5eXWYPnoJwaUcttqnj"><g stroke="#000" fill="#fff"><path class="fil0" d="M102 0c56 0 102 46 102 102s-46 102-102 102S0 158 0 102 46 0 102 0zm0 17c-47 0-85 38-85 85s38 86 85 86 86-39 86-86-39-85-86-85z" stroke-width="7.5" stroke-linejoin="round" stroke="#000"></path></g></mask></svg></svg> <defs><filter id="colors6065170794"><feColorMatrix type="matrix" values="0 0 0 0 0.05859375  0 0 0 0 0.86328125  0 0 0 0 0.93359375  0 0 0 1 0" class="icon-fecolormatrix"></feColorMatrix></filter> <filter id="colorsf8645875269"><feColorMatrix type="matrix" values="0 0 0 0 0.99609375  0 0 0 0 0.99609375  0 0 0 0 0.99609375  0 0 0 1 0" class="icon-fecolormatrix"></feColorMatrix></filter> <filter id="colorsb1385007376"><feColorMatrix type="matrix" values="0 0 0 0 0  0 0 0 0 0  0 0 0 0 0  0 0 0 1 0" class="icon-fecolormatrix"></feColorMatrix></filter></defs></g></g> <g data-d="icon-text" hollow-target="textRect" transform="translate(21.55780792236328,72.17199897766113)"><!----> <g data-d="text"><g data-gra="path-name" fill-rule="" class="tp-name iconsvg-namesvg"><g transform="scale(1.5600000000000005)"><g><path d="M15.96 0.26Q14.4 0.26 13.49-0.65 12.58-1.56 12.58-3.07L12.58-3.07 12.58-31.15 3.12-31.15Q0-31.15 0-33.9L0-33.9Q0-36.66 3.12-36.66L3.12-36.66 28.76-36.66Q31.88-36.66 31.88-33.9L31.88-33.9Q31.88-31.15 28.76-31.15L28.76-31.15 19.29-31.15 19.29-3.07Q19.29-1.56 18.38-0.65 17.47 0.26 15.96 0.26L15.96 0.26ZM64.53-4Q64.84-3.33 64.84-2.65L64.84-2.65Q64.84-1.46 63.88-0.62 62.92 0.21 61.67 0.21L61.67 0.21Q60.84 0.21 60.11-0.23 59.38-0.68 58.97-1.61L58.97-1.61 55.85-8.58 37.54-8.58 34.42-1.61Q34.01-0.68 33.28-0.23 32.55 0.21 31.67 0.21L31.67 0.21Q30.47 0.21 29.48-0.62 28.5-1.46 28.5-2.65L28.5-2.65Q28.5-3.33 28.81-4L28.81-4 43.16-34.84Q43.63-35.88 44.59-36.43 45.55-36.97 46.64-36.97L46.64-36.97Q47.74-36.97 48.7-36.43 49.66-35.88 50.13-34.84L50.13-34.84 64.53-4ZM46.7-29.22L39.83-13.78 53.56-13.78 46.7-29.22ZM85.07 0.47Q79.72 0.47 75.79-1.82 71.86-4.11 69.73-8.37 67.6-12.64 67.6-18.36L67.6-18.36Q67.6-24.08 69.71-28.31 71.81-32.55 75.76-34.84 79.72-37.13 85.07-37.13L85.07-37.13Q90.43-37.13 94.35-34.84 98.28-32.55 100.39-28.31 102.49-24.08 102.49-18.36L102.49-18.36Q102.49-12.64 100.36-8.37 98.23-4.11 94.3-1.82 90.38 0.47 85.07 0.47L85.07 0.47ZM85.07-4.89Q90.12-4.89 92.95-8.37 95.78-11.86 95.78-18.36L95.78-18.36Q95.78-24.86 92.95-28.31 90.12-31.77 85.07-31.77L85.07-31.77Q79.98-31.77 77.14-28.31 74.31-24.86 74.31-18.36L74.31-18.36Q74.31-11.86 77.14-8.37 79.98-4.89 85.07-4.89L85.07-4.89Z" transform="translate(0, 37.130001068115234)"></path></g> <!----> <!----> <!----> <!----> <!----> <!----> <!----></g></g> <!----></g></g></g></mask><defs v-gra="od"></defs></svg>